<svg width="24" height="24" viewBox="0 0 24 24" fill="none" xmlns="http://www.w3.org/2000/svg">
<path d="M7.42426 12.0757C7.18995 11.8414 6.81005 11.8414 6.57574 12.0757C6.34142 12.3101 6.34142 12.6899 6.57574 12.9243L7.42426 12.0757ZM12 17.5L11.5757 17.9243L12 18.3485L12.4243 17.9243L12 17.5ZM17.4243 12.9243C17.6586 12.69 17.6586 12.3101 17.4243 12.0757C17.1899 11.8414 16.8101 11.8414 16.5757 12.0757L17.4243 12.9243ZM6.57574 12.9243L11.5757 17.9243L12.4243 17.0757L7.42426 12.0757L6.57574 12.9243ZM12.4243 17.9243L17.4243 12.9243L16.5757 12.0757L11.5757 17.0757L12.4243 17.9243Z" fill="#5D5D5D"/>
<path d="M7.42426 6.57574C7.18995 6.34142 6.81005 6.34142 6.57574 6.57574C6.34142 6.81005 6.34142 7.18995 6.57574 7.42426L7.42426 6.57574ZM12 12L11.5757 12.4243L12 12.8485L12.4243 12.4243L12 12ZM17.4243 7.42426C17.6586 7.18995 17.6586 6.81005 17.4243 6.57574C17.1899 6.34142 16.8101 6.34142 16.5757 6.57574L17.4243 7.42426ZM6.57574 7.42426L11.5757 12.4243L12.4243 11.5757L7.42426 6.57574L6.57574 7.42426ZM12.4243 12.4243L17.4243 7.42426L16.5757 6.57574L11.5757 11.5757L12.4243 12.4243Z" fill="#5D5D5D"/>
</svg>
