<svg width="20" height="20" viewBox="0 0 20 20" fill="none" xmlns="http://www.w3.org/2000/svg">
<path fill-rule="evenodd" clip-rule="evenodd" d="M18.64 10.2044C18.64 9.5662 18.5827 8.95257 18.4764 8.36348H10V11.8448H14.8436C14.635 12.9698 14.0009 13.923 13.0477 14.5612V16.8194H15.9564C17.6582 15.2526 18.64 12.9453 18.64 10.2044Z" fill="#4285F4"/>
<path fill-rule="evenodd" clip-rule="evenodd" d="M9.99903 19.0004C12.429 19.0004 14.4663 18.1944 15.9554 16.8199L13.0468 14.5617C12.2408 15.1017 11.2099 15.4208 9.99903 15.4208C7.65494 15.4208 5.67084 13.8376 4.96312 11.7104H1.9563V14.0422C3.43721 16.9835 6.48084 19.0004 9.99903 19.0004Z" fill="#34A853"/>
<path fill-rule="evenodd" clip-rule="evenodd" d="M4.96409 11.7097C4.78409 11.1697 4.68182 10.5929 4.68182 9.99973C4.68182 9.40655 4.78409 8.82973 4.96409 8.28973V5.95791H1.95727C1.34773 7.17291 1 8.54746 1 9.99973C1 11.452 1.34773 12.8265 1.95727 14.0415L4.96409 11.7097Z" fill="#FBBC05"/>
<path fill-rule="evenodd" clip-rule="evenodd" d="M9.99903 4.57955C11.3204 4.57955 12.5068 5.03364 13.4395 5.92545L16.0208 3.34409C14.4622 1.89182 12.4249 1 9.99903 1C6.48084 1 3.43721 3.01682 1.9563 5.95818L4.96312 8.29C5.67084 6.16273 7.65494 4.57955 9.99903 4.57955Z" fill="#EA4335"/>
</svg>
