<svg width="175" height="192" viewBox="0 0 175 192" fill="none" xmlns="http://www.w3.org/2000/svg">
<g clip-path="url(#clip0_512_3)">
<path fill-rule="evenodd" clip-rule="evenodd" d="M124.511 63.7111L133.349 79.0204H115.672L106.833 63.7111H124.511Z" fill="#5943A5"/>
<path fill-rule="evenodd" clip-rule="evenodd" d="M69.9252 88.6824L58.0995 109.182H58.0147V109.328L49.168 124.663H66.8592L66.9587 124.491H141.168L141.268 124.663H158.96L138.945 90.1012L138.934 90.1004L138.379 89.1394H123.345L120.598 88.97L122.461 92.1872L129.541 104.449H129.562L132.303 109.182H75.7907L87.6168 88.6824H69.9252Z" fill="#0583F2"/>
<path fill-rule="evenodd" clip-rule="evenodd" d="M29.1186 63.7107H51.276H52.9693H102.278L93.3049 79.0204H60.1015L33.5794 124.82H15.8882L42.4103 79.0204H19.5542L29.1186 63.7107Z" fill="#0583F2"/>
<path fill-rule="evenodd" clip-rule="evenodd" d="M87.827 0L58.3872 51.0062H76.0784L87.8235 30.647L99.6443 51.0062H117.336L96.6453 15.3547L96.6684 15.3142L87.827 0Z" fill="#0583F2"/>
<path d="M23.5886 147.549V140.1H0V147.549H8.06968V171.137H15.5189V147.549H23.5886Z" fill="black"/>
<path d="M39.7752 146.451V149.172C38.2949 147.31 35.7639 146.451 33.4247 146.451C26.6443 146.498 21.1529 152.037 21.201 158.818C21.2487 165.598 26.7873 171.09 33.5681 171.042C35.8123 171.042 38.2952 170.278 39.7756 168.368V171.137H46.4606V146.451H39.7756H39.7752ZM37.7697 163.02C36.6715 164.166 35.1434 164.786 33.52 164.834C31.8962 164.834 30.3682 164.214 29.2222 163.068C28.0763 161.922 27.4082 160.394 27.4082 158.77C27.4082 157.146 28.0286 155.618 29.1746 154.472C30.3205 153.326 31.8486 152.706 33.472 152.706C35.0477 152.658 36.5758 153.279 37.7217 154.425C38.9157 155.571 39.5361 157.099 39.5361 158.723C39.5361 160.346 38.9157 161.874 37.7697 163.02V163.02Z" fill="black"/>
<path d="M55.9625 137.856H49.3252V143.49H55.9625V137.856ZM56.0102 146.594H49.3252V171.137H56.0102V146.594V146.594Z" fill="black"/>
<path d="M93.8166 152.658H86.081V158.866H93.2434C92.8136 159.964 91.429 161.397 91.0949 161.731C89.3281 163.45 86.9886 164.453 84.5052 164.453C82.0219 164.453 79.6827 163.45 77.9636 161.731C76.1968 159.965 75.1939 157.625 75.1939 155.141C75.1939 152.658 76.1965 150.319 77.9636 148.552C79.6827 146.785 82.0219 145.83 84.5052 145.83C86.5584 145.83 88.5163 146.498 90.1396 147.692L94.9145 142.965C92.0975 140.578 88.4686 139.145 84.5052 139.145C75.6717 139.145 68.5093 146.307 68.5093 155.141C68.5093 163.975 75.6717 171.137 84.5052 171.137C87.9911 171.137 91.1903 170.039 93.8166 168.176V170.66H100.024V152.658H93.8166V152.658ZM93.7685 158.866H93.8166V158.914L93.7685 158.866Z" fill="black"/>
<path d="M102.889 158.866C102.889 165.551 107.951 170.708 114.253 170.66C116.45 170.66 118.455 170.087 120.27 168.082V170.66H126.955V145.973H120.27V158.293C120.27 158.293 120.27 158.293 120.27 158.34C120.27 159.964 119.601 164.405 114.683 164.405C110.195 164.405 109.097 160.012 109.097 158.388C109.097 158.34 109.097 158.34 109.097 158.293V145.973H102.889C102.889 145.973 102.889 154.95 102.889 158.866V158.866Z" fill="black"/>
<path d="M136.457 137.379H129.819V143.013H136.457V137.379ZM136.504 146.117H129.819V170.66H136.504V146.117V146.117Z" fill="black"/>
<path d="M146.054 137.474H139.37V170.66H146.054V137.474Z" fill="black"/>
<path d="M174.847 170.66L174.799 137.331H168.114V148.886C165.965 147.12 163.244 146.069 160.236 146.069C153.455 146.117 147.964 151.655 148.012 158.436C148.06 165.217 153.598 170.708 160.379 170.66C163.34 170.66 166.061 169.562 168.162 167.842V170.66H174.847H174.847ZM164.629 162.638C163.483 163.784 161.955 164.405 160.331 164.452C158.708 164.452 157.18 163.832 156.034 162.686C154.888 161.54 154.267 160.012 154.267 158.388C154.22 156.765 154.888 155.284 155.986 154.091C157.132 152.945 158.66 152.324 160.284 152.324C161.908 152.324 163.436 152.945 164.582 154.043C165.727 155.189 166.348 156.717 166.396 158.341C166.396 159.965 165.775 161.492 164.629 162.638L164.629 162.638Z" fill="black"/>
<path d="M9.34906 191.979C8.28673 191.979 7.30686 191.803 6.41061 191.451C5.51398 191.099 4.7369 190.604 4.07937 189.967C3.42184 189.329 2.91035 188.578 2.54526 187.715C2.1798 186.852 1.99707 185.909 1.99707 184.886C1.99707 183.863 2.1798 182.92 2.54526 182.056C2.91035 181.193 3.42525 180.443 4.08921 179.805C4.75355 179.168 5.53365 178.673 6.43066 178.321C7.32729 177.969 8.30678 177.793 9.36911 177.793C10.4318 177.793 11.4049 177.959 12.2879 178.291C13.1713 178.623 13.9253 179.128 14.5491 179.805L13.6325 180.741C13.0483 180.157 12.404 179.739 11.7 179.486C10.9959 179.234 10.2389 179.108 9.42851 179.108C8.56517 179.108 7.77145 179.251 7.04771 179.536C6.3236 179.822 5.69293 180.227 5.15495 180.752C4.61659 181.276 4.19817 181.887 3.89967 182.585C3.60079 183.282 3.45097 184.049 3.45097 184.886C3.45097 185.709 3.60079 186.473 3.89967 187.177C4.19817 187.881 4.61659 188.496 5.15495 189.02C5.69293 189.545 6.3236 189.95 7.04771 190.236C7.77145 190.521 8.55836 190.664 9.40884 190.664C10.2056 190.664 10.9596 190.544 11.6701 190.305C12.3806 190.066 13.0347 189.661 13.6325 189.09L14.4693 190.206C13.8054 190.79 13.0283 191.231 12.1385 191.531C11.2483 191.829 10.3187 191.979 9.34869 191.979H9.34906ZM13.0551 190.026V184.886H14.4693V190.206L13.0551 190.026V190.026Z" fill="black"/>
<path d="M38.1536 191.859L44.5295 177.912H45.9838L52.3593 191.859H50.8052L44.9476 178.769H45.5449L39.6873 191.859H38.1528H38.1536ZM40.6642 188.134L41.1023 186.938H49.2117L49.6501 188.134H40.6642V188.134Z" fill="black"/>
<path d="M76.4224 191.859V177.912H77.6375L84.0131 188.791H83.376L89.6914 177.912H90.9069V191.859H89.4924V180.124H89.831L84.0131 190.086H83.3158L77.4582 180.124H77.8365V191.859H76.4224Z" fill="black"/>
<path d="M118.516 184.149H125.888V185.404H118.516V184.149ZM118.676 190.584H127.064V191.859H117.202V177.912H126.765V179.188H118.676V190.584V190.584Z" fill="black"/>
<path d="M156.128 191.979C155.092 191.979 154.099 191.809 153.149 191.471C152.199 191.132 151.465 190.697 150.948 190.166L151.525 189.03C152.017 189.508 152.677 189.91 153.508 190.236C154.338 190.561 155.211 190.724 156.128 190.724C157.004 190.724 157.718 190.614 158.269 190.395C158.821 190.176 159.226 189.88 159.485 189.508C159.744 189.136 159.873 188.724 159.873 188.273C159.873 187.728 159.717 187.29 159.405 186.958C159.093 186.626 158.685 186.363 158.18 186.171C157.675 185.978 157.117 185.809 156.506 185.662C155.895 185.516 155.284 185.36 154.673 185.194C154.062 185.028 153.501 184.806 152.989 184.527C152.478 184.248 152.066 183.879 151.754 183.421C151.442 182.963 151.286 182.362 151.286 181.618C151.286 180.927 151.468 180.293 151.834 179.715C152.199 179.138 152.76 178.673 153.517 178.321C154.274 177.969 155.244 177.793 156.426 177.793C157.21 177.793 157.987 177.902 158.757 178.121C159.528 178.34 160.192 178.643 160.75 179.028L160.252 180.203C159.654 179.805 159.019 179.513 158.349 179.327C157.678 179.141 157.03 179.048 156.406 179.048C155.569 179.048 154.879 179.161 154.334 179.387C153.789 179.612 153.387 179.915 153.128 180.293C152.87 180.672 152.74 181.1 152.74 181.579C152.74 182.123 152.896 182.561 153.208 182.894C153.52 183.226 153.932 183.485 154.443 183.671C154.955 183.857 155.516 184.023 156.127 184.169C156.738 184.315 157.346 184.474 157.95 184.647C158.554 184.82 159.112 185.042 159.624 185.315C160.136 185.587 160.547 185.949 160.859 186.4C161.172 186.852 161.328 187.443 161.328 188.174C161.328 188.851 161.142 189.478 160.77 190.056C160.398 190.634 159.83 191.099 159.066 191.451C158.302 191.803 157.323 191.979 156.127 191.979H156.128Z" fill="black"/>
</g>
<defs>
<clipPath id="clip0_512_3">
<rect width="174.847" height="191.979" fill="white"/>
</clipPath>
</defs>
</svg>
